<svg width="15" height="15" viewBox="0 0 15 15" fill="none" xmlns="http://www.w3.org/2000/svg">
<path d="M8.89999 6.40002V1.40002C8.89999 1.13481 8.79464 0.880454 8.6071 0.692918C8.41956 0.505381 8.16521 0.400024 7.89999 0.400024C7.63478 0.400024 7.38042 0.505381 7.19289 0.692918C7.00535 0.880454 6.89999 1.13481 6.89999 1.40002V6.40002H1.89999C1.63478 6.40002 1.38042 6.50538 1.19289 6.69292C1.00535 6.88045 0.899994 7.13481 0.899994 7.40002C0.899994 7.66524 1.00535 7.9196 1.19289 8.10713C1.38042 8.29467 1.63478 8.40002 1.89999 8.40002H6.89999V13.4C6.89999 13.6652 7.00535 13.9196 7.19289 14.1071C7.38042 14.2947 7.63478 14.4 7.89999 14.4C8.16521 14.4 8.41956 14.2947 8.6071 14.1071C8.79464 13.9196 8.89999 13.6652 8.89999 13.4V8.40002H13.9C14.1652 8.40002 14.4196 8.29467 14.6071 8.10713C14.7946 7.9196 14.9 7.66524 14.9 7.40002C14.9 7.13481 14.7946 6.88045 14.6071 6.69292C14.4196 6.50538 14.1652 6.40002 13.9 6.40002H8.89999Z" fill="white"/>
</svg>
