<svg width="20" height="18" viewBox="0 0 20 18" fill="none" xmlns="http://www.w3.org/2000/svg">
<path fill-rule="evenodd" clip-rule="evenodd" d="M1.6875 0.499999C2.34334 0.499999 2.875 1.04365 2.875 1.71428L2.875 16.2857C2.875 16.9563 2.34334 17.5 1.6875 17.5C1.03166 17.5 0.499999 16.9563 0.499999 16.2857L0.5 1.71428C0.5 1.04365 1.03166 0.499999 1.6875 0.499999ZM10.8397 4.49851C11.3034 4.97272 11.3034 5.74156 10.8397 6.21577L9.30438 7.78571L18.3125 7.78571C18.9683 7.78571 19.5 8.32937 19.5 9C19.5 9.67063 18.9683 10.2143 18.3125 10.2143L9.30438 10.2143L10.8397 11.7842C11.3034 12.2584 11.3034 13.0273 10.8397 13.5015C10.3759 13.9757 9.62406 13.9757 9.16031 13.5015L5.59781 9.85863C5.37511 9.63091 5.25 9.32205 5.25 9C5.25 8.67795 5.37511 8.36909 5.59781 8.14137L9.16031 4.49851C9.62406 4.0243 10.3759 4.0243 10.8397 4.49851Z" fill="#211F1E"/>
</svg>
