<svg width="22" height="22" viewBox="0 0 22 22" fill="none" xmlns="http://www.w3.org/2000/svg">
<path d="M7.625 11C8.24632 11 8.75 10.4963 8.75 9.875C8.75 9.25368 8.24632 8.75 7.625 8.75C7.00368 8.75 6.5 9.25368 6.5 9.875C6.5 10.4963 7.00368 11 7.625 11Z" fill="#211F1E"/>
<path d="M11.0024 17C8.87337 17 7.08274 15.6158 6.51602 13.7267C6.50017 13.6705 6.49768 13.6114 6.50873 13.554C6.51978 13.4967 6.54407 13.4427 6.57968 13.3964C6.61528 13.3501 6.66121 13.3127 6.7138 13.2873C6.76639 13.2619 6.82419 13.2491 6.88259 13.25H15.1181C15.1765 13.2491 15.2343 13.2619 15.2868 13.2873C15.3394 13.3127 15.3854 13.3501 15.421 13.3964C15.4566 13.4427 15.4809 13.4967 15.4919 13.554C15.503 13.6114 15.5005 13.6705 15.4846 13.7267C14.9226 15.6158 13.1315 17 11.0024 17Z" fill="#211F1E"/>
<path d="M14.375 11C14.9963 11 15.5 10.4963 15.5 9.875C15.5 9.25368 14.9963 8.75 14.375 8.75C13.7537 8.75 13.25 9.25368 13.25 9.875C13.25 10.4963 13.7537 11 14.375 11Z" fill="#211F1E"/>
<path fill-rule="evenodd" clip-rule="evenodd" d="M11 2C6.02944 2 2 6.02944 2 11C2 15.9706 6.02944 20 11 20C15.9706 20 20 15.9706 20 11C20 6.02944 15.9706 2 11 2ZM0.5 11C0.5 5.20101 5.20101 0.5 11 0.5C16.799 0.5 21.5 5.20101 21.5 11C21.5 16.799 16.799 21.5 11 21.5C5.20101 21.5 0.5 16.799 0.5 11Z" fill="#211F1E"/>
</svg>
