<svg width="22" height="22" viewBox="0 0 22 22" fill="none" xmlns="http://www.w3.org/2000/svg">
<path d="M18.424 3.57552C17.4507 2.59262 16.2928 1.81172 15.0169 1.27767C13.7409 0.743614 12.372 0.466937 10.9887 0.463533C9.60551 0.460128 8.23524 0.730063 6.95666 1.25783C5.67807 1.78559 4.51636 2.56079 3.53827 3.53888C2.56018 4.51697 1.78498 5.67868 1.25722 6.95727C0.729452 8.23585 0.459518 9.60612 0.462922 10.9893C0.466327 12.3726 0.743003 13.7415 1.27706 15.0175C1.81111 16.2934 2.59201 17.4513 3.57491 18.4246C4.54817 19.4075 5.70605 20.1884 6.98202 20.7224C8.258 21.2565 9.62692 21.5332 11.0101 21.5366C12.3934 21.54 13.7636 21.27 15.0422 20.7423C16.3208 20.2145 17.4825 19.4393 18.4606 18.4612C19.4387 17.4831 20.2139 16.3214 20.7417 15.0428C21.2694 13.7642 21.5394 12.394 21.536 11.0108C21.5325 9.62753 21.2559 8.25861 20.7218 6.98263C20.1878 5.70666 19.4069 4.54878 18.424 3.57552ZM14.3744 8.75005C14.5969 8.75005 14.8144 8.81603 14.9995 8.93964C15.1845 9.06326 15.3287 9.23896 15.4138 9.44453C15.499 9.6501 15.5212 9.8763 15.4778 10.0945C15.4344 10.3128 15.3273 10.5132 15.1699 10.6705C15.0126 10.8279 14.8121 10.935 14.5939 10.9784C14.3757 11.0218 14.1495 10.9996 13.9439 10.9144C13.7384 10.8293 13.5627 10.6851 13.439 10.5001C13.3154 10.3151 13.2494 10.0976 13.2494 9.87505C13.2491 9.72721 13.2779 9.58075 13.3343 9.44409C13.3907 9.30743 13.4736 9.18327 13.5781 9.07873C13.6827 8.97419 13.8068 8.89133 13.9435 8.83493C14.0801 8.77852 14.2266 8.74968 14.3744 8.75005ZM7.62444 8.75005C7.84694 8.75005 8.06445 8.81603 8.24945 8.93964C8.43446 9.06326 8.57865 9.23896 8.6638 9.44453C8.74895 9.6501 8.77123 9.8763 8.72782 10.0945C8.68441 10.3128 8.57727 10.5132 8.41993 10.6705C8.2626 10.8279 8.06214 10.935 7.84391 10.9784C7.62569 11.0218 7.39949 10.9996 7.19392 10.9144C6.98835 10.8293 6.81265 10.6851 6.68903 10.5001C6.56542 10.3151 6.49944 10.0976 6.49944 9.87505C6.49907 9.72721 6.52791 9.58075 6.58432 9.44409C6.64072 9.30743 6.72358 9.18327 6.82812 9.07873C6.93266 8.97419 7.05682 8.89133 7.19348 8.83493C7.33014 8.77852 7.4766 8.74968 7.62444 8.75005ZM11.0018 17C8.87272 17 7.076 15.6177 6.51491 13.7268C6.46616 13.5618 6.40569 13.25 6.40569 13.25H15.5932C15.5932 13.25 15.5318 13.5636 15.484 13.7268C14.9318 15.6186 13.1308 17 11.0018 17Z" fill="#211F1E"/>
</svg>
