<svg width="22" height="17" viewBox="0 0 22 17" fill="none" xmlns="http://www.w3.org/2000/svg">
<path d="M3.375 6.75C1.51406 6.75 0 5.23594 0 3.375C0 1.51406 1.51406 0 3.375 0C5.23594 0 6.75 1.51406 6.75 3.375C6.75 5.23594 5.23594 6.75 3.375 6.75ZM3.375 1.5C2.33906 1.5 1.5 2.33906 1.5 3.375C1.5 4.41094 2.33906 5.25 3.375 5.25C4.41094 5.25 5.25 4.41094 5.25 3.375C5.25 2.33906 4.41094 1.5 3.375 1.5Z" fill="#211F1E"/>
<path d="M3.375 16.5C1.51406 16.5 0 14.9859 0 13.125C0 11.2641 1.51406 9.75 3.375 9.75C5.23594 9.75 6.75 11.2641 6.75 13.125C6.75 14.9859 5.23594 16.5 3.375 16.5ZM3.375 11.25C2.33906 11.25 1.5 12.0891 1.5 13.125C1.5 14.1609 2.33906 15 3.375 15C4.41094 15 5.25 14.1609 5.25 13.125C5.25 12.0891 4.41094 11.25 3.375 11.25Z" fill="#211F1E"/>
<path d="M7.42031 6.80626L4.17188 5.48907L5.6625 3.4547L8.61094 5.24063L7.94062 5.91563C7.88437 5.97188 7.78594 6.12657 7.73906 6.21095L7.42031 6.80626Z" fill="#211F1E"/>
<path d="M5.4 12.9703L4.3125 10.7297L5.26406 10.5562C5.32031 10.5422 6.06094 10.3547 7.05 9.61875C7.65937 9.16406 7.7625 8.64375 7.89375 7.97812C8.03437 7.25156 8.2125 6.34687 9.16406 5.67187C11.1703 4.24687 15.9562 3.13125 16.8984 2.925C18.1406 2.64844 20.3531 2.475 20.7656 3.58125L20.9906 4.18125L5.4 12.9703ZM17.7422 4.29375C17.5781 4.31719 17.4094 4.35 17.2266 4.39219C14.7703 4.93594 11.4141 5.92031 10.0359 6.9C9.59531 7.21406 9.50156 7.58437 9.37031 8.26875C9.31875 8.54062 9.25781 8.83125 9.16406 9.13125L17.7422 4.29375Z" fill="#211F1E"/>
<path d="M18.2953 13.0922C18.1125 13.0922 17.9344 13.0828 17.7656 13.0734C15.3844 12.9328 13.05 11.8031 12.1734 11.3812C12.1078 11.3484 12.0516 11.3203 12.0047 11.3016L10.7109 10.6875L14.6391 8.42812L21.0469 11.9672L20.0766 12.6562C19.5797 13.0078 18.9141 13.0922 18.2953 13.0922ZM13.9594 10.5516C14.8031 10.9078 15.9281 11.3156 17.0859 11.4937L14.6531 10.1531L13.9594 10.5516Z" fill="#211F1E"/>
<path d="M10.5 9.75C9.25781 9.75 8.25 8.74219 8.25 7.5C8.25 6.25781 9.25781 5.25 10.5 5.25C11.7422 5.25 12.75 6.25781 12.75 7.5C12.75 8.74219 11.7422 9.75 10.5 9.75ZM10.5 6.75C10.0875 6.75 9.75 7.0875 9.75 7.5C9.75 7.9125 10.0875 8.25 10.5 8.25C10.9125 8.25 11.25 7.9125 11.25 7.5C11.25 7.0875 10.9125 6.75 10.5 6.75Z" fill="#211F1E"/>
</svg>
