<svg width="16" height="21" viewBox="0 0 16 21" fill="none" xmlns="http://www.w3.org/2000/svg">
<path fill-rule="evenodd" clip-rule="evenodd" d="M2.66667 0C1.19391 0 0 1.17525 0 2.625V18.375C0 19.8247 1.19391 21 2.66667 21H13.3333C14.8061 21 16 19.8247 16 18.375V7.10616C16 6.40996 15.719 5.74228 15.219 5.25L10.6667 0.768845C10.1666 0.276562 9.48829 0 8.78105 0H2.66667ZM5.33333 13.125C5.33333 12.4001 4.73638 11.8125 4 11.8125C3.26362 11.8125 2.66667 12.4001 2.66667 13.125V17.0625C2.66667 17.7874 3.26362 18.375 4 18.375C4.73638 18.375 5.33333 17.7874 5.33333 17.0625V13.125ZM8 9.1875C8.73638 9.1875 9.33333 9.77513 9.33333 10.5V17.0625C9.33333 17.7874 8.73638 18.375 8 18.375C7.26362 18.375 6.66667 17.7874 6.66667 17.0625V10.5C6.66667 9.77513 7.26362 9.1875 8 9.1875ZM13.3333 7.875C13.3333 7.15013 12.7364 6.5625 12 6.5625C11.2636 6.5625 10.6667 7.15013 10.6667 7.875V17.0625C10.6667 17.7874 11.2636 18.375 12 18.375C12.7364 18.375 13.3333 17.7874 13.3333 17.0625V7.875Z" fill="#211F1E"/>
</svg>
