<svg width="22" height="17" viewBox="0 0 22 17" fill="none" xmlns="http://www.w3.org/2000/svg">
<path d="M21.0379 2.26497H18.7879L9.46255 5.56778L6.69083 4.087C6.85671 3.308 6.74239 2.49544 6.36798 1.79245C5.99358 1.08947 5.38311 0.541152 4.64411 0.244084C3.90511 -0.0529844 3.08499 -0.0797471 2.3282 0.16851C1.5714 0.416767 0.926487 0.924119 0.507047 1.6012C0.0876066 2.27828 -0.0794527 3.08165 0.0352951 3.86982C0.150043 4.65798 0.539237 5.38037 1.13432 5.90975C1.72941 6.43912 2.49222 6.74153 3.28838 6.76369C4.08454 6.78585 4.86299 6.52636 5.48661 6.03091L7.93348 7.51778L7.53786 9.24935L5.49223 10.5037C4.86685 10.0072 4.08521 9.74947 3.28716 9.77657C2.48912 9.80367 1.72676 10.1139 1.1365 10.6516C0.546247 11.1894 0.166613 11.9197 0.0655356 12.7118C-0.035542 13.5038 0.148533 14.306 0.584821 14.9748C1.02111 15.6436 1.68114 16.1353 2.4468 16.3619C3.21246 16.5886 4.03379 16.5354 4.76382 16.2119C5.49384 15.8883 6.08492 15.3156 6.43128 14.5961C6.77764 13.8766 6.85669 13.0574 6.65426 12.285L21.0379 3.76497V2.26497ZM3.38848 5.26497C3.01764 5.26497 2.65513 5.155 2.34679 4.94898C2.03845 4.74295 1.79812 4.45011 1.65621 4.1075C1.5143 3.76489 1.47716 3.38789 1.54951 3.02418C1.62186 2.66046 1.80044 2.32637 2.06266 2.06415C2.32488 1.80192 2.65897 1.62335 3.02269 1.551C3.3864 1.47865 3.7634 1.51578 4.10602 1.6577C4.44863 1.79961 4.74146 2.03993 4.94749 2.34828C5.15352 2.65662 5.26348 3.01913 5.26348 3.38997C5.26348 3.6362 5.21499 3.88002 5.12076 4.1075C5.02653 4.33499 4.88842 4.54169 4.71431 4.7158C4.5402 4.88991 4.3335 5.02802 4.10602 5.12224C3.87853 5.21647 3.63471 5.26497 3.38848 5.26497ZM3.38848 15.015C3.01764 15.015 2.65513 14.905 2.34679 14.699C2.03845 14.4929 1.79812 14.2001 1.65621 13.8575C1.5143 13.5149 1.47716 13.1379 1.54951 12.7742C1.62186 12.4105 1.80044 12.0764 2.06266 11.8141C2.32488 11.5519 2.65897 11.3733 3.02269 11.301C3.3864 11.2287 3.7634 11.2658 4.10602 11.4077C4.44863 11.5496 4.74146 11.7899 4.94749 12.0983C5.15352 12.4066 5.26348 12.7691 5.26348 13.14C5.26348 13.3862 5.21499 13.63 5.12076 13.8575C5.02653 14.085 4.88842 14.2917 4.71431 14.4658C4.5402 14.6399 4.3335 14.778 4.10602 14.8722C3.87853 14.9665 3.63471 15.015 3.38848 15.015ZM10.5135 8.26497C10.3651 8.26497 10.2201 8.22098 10.0968 8.13857C9.97347 8.05616 9.87734 7.93903 9.82057 7.80198C9.76381 7.66494 9.74896 7.51414 9.77789 7.36865C9.80683 7.22317 9.87826 7.08953 9.98315 6.98464C10.088 6.87975 10.2217 6.80832 10.3672 6.77938C10.5127 6.75044 10.6635 6.7653 10.8005 6.82206C10.9375 6.87883 11.0547 6.97496 11.1371 7.09829C11.2195 7.22163 11.2635 7.36663 11.2635 7.51497C11.2635 7.61346 11.2441 7.71099 11.2064 7.80198C11.1687 7.89298 11.1135 7.97566 11.0438 8.0453C10.9742 8.11494 10.8915 8.17019 10.8005 8.20788C10.7095 8.24557 10.612 8.26497 10.5135 8.26497Z" fill="#211F1E"/>
<path d="M14.6529 8.44641L10.7275 10.7048L18.7877 13.515H21.0372L21.0377 12.015L14.6529 8.44641Z" fill="#211F1E"/>
</svg>
