<svg width="23" height="19" viewBox="0 0 23 19" fill="none" xmlns="http://www.w3.org/2000/svg">
<path d="M10.2222 4.07143C10.2222 6.32002 8.50597 8.14286 6.38888 8.14286C4.27179 8.14286 2.55555 6.32002 2.55555 4.07143C2.55555 1.82284 4.27179 0 6.38888 0C8.50597 0 10.2222 1.82284 10.2222 4.07143Z" fill="#211F1E"/>
<path d="M20.4444 4.07143C20.4444 6.32002 18.7282 8.14286 16.6111 8.14286C14.494 8.14286 12.7778 6.32002 12.7778 4.07143C12.7778 1.82284 14.494 0 16.6111 0C18.7282 0 20.4444 1.82284 20.4444 4.07143Z" fill="#211F1E"/>
<path d="M15.2428 19C15.3025 18.5568 15.3333 18.1036 15.3333 17.6429C15.3333 15.4237 14.6169 13.3822 13.4163 11.7652C14.3561 11.1877 15.4473 10.8571 16.6111 10.8571C20.1396 10.8571 23 13.8952 23 17.6429V19H15.2428Z" fill="#211F1E"/>
<path d="M6.38888 10.8571C9.91736 10.8571 12.7778 13.8952 12.7778 17.6429V19H0V17.6429C0 13.8952 2.8604 10.8571 6.38888 10.8571Z" fill="#211F1E"/>
</svg>
