<svg width="95" height="94" viewBox="0 0 95 94" fill="none" xmlns="http://www.w3.org/2000/svg">
<g clip-path="url(#clip0_766_6419)">
<path d="M12.25 11.75C12.25 10.1919 12.869 8.69752 13.9707 7.59575C15.0725 6.49397 16.5669 5.875 18.125 5.875H45.0677C46.6258 5.87533 48.1199 6.49452 49.2214 7.59637L90.3464 48.7214C91.4478 49.8231 92.0665 51.3172 92.0665 52.875C92.0665 54.4328 91.4478 55.9269 90.3464 57.0286L63.4036 83.9714C62.3019 85.0728 60.8078 85.6915 59.25 85.6915C57.6922 85.6915 56.1981 85.0728 55.0964 83.9714L13.9714 42.8464C12.8695 41.7449 12.2503 40.2508 12.25 38.6927V11.75ZM32.8125 35.25C35.1497 35.25 37.3912 34.3215 39.0439 32.6689C40.6965 31.0162 41.625 28.7747 41.625 26.4375C41.625 24.1003 40.6965 21.8588 39.0439 20.2061C37.3912 18.5535 35.1497 17.625 32.8125 17.625C30.4753 17.625 28.2338 18.5535 26.5811 20.2061C24.9285 21.8588 24 24.1003 24 26.4375C24 28.7747 24.9285 31.0162 26.5811 32.6689C28.2338 34.3215 30.4753 35.25 32.8125 35.25V35.25Z" fill="#FFFAFC"/>
<path d="M8.09637 45.7839C6.99452 44.6824 6.37533 43.1883 6.375 41.6302V11.75C4.81685 11.75 3.32252 12.369 2.22075 13.4707C1.11897 14.5725 0.5 16.0669 0.5 17.625L0.5 44.5677C0.500333 46.1258 1.11952 47.6199 2.22138 48.7214L43.3464 89.8464C44.4481 90.9478 45.9422 91.5665 47.5 91.5665C49.0578 91.5665 50.5519 90.9478 51.6536 89.8464L51.9062 89.5938L8.09637 45.7839V45.7839Z" fill="#FFFAFC"/>
</g>
<defs>
<clipPath id="clip0_766_6419">
<rect width="94" height="94" fill="white" transform="translate(0.5)"/>
</clipPath>
</defs>
</svg>
