<svg width="18" height="18" viewBox="0 0 18 18" fill="none" xmlns="http://www.w3.org/2000/svg">
<path fill-rule="evenodd" clip-rule="evenodd" d="M8.83496 14.3447C8.52376 14.0335 8.52376 13.529 8.83496 13.2178L13.0527 9L8.83496 4.78223C8.52376 4.47103 8.52376 3.96647 8.83496 3.65527C9.14616 3.34408 9.65071 3.34408 9.96191 3.65527L14.7432 8.43652C15.0544 8.74772 15.0544 9.25228 14.7432 9.56348L9.96191 14.3447C9.65071 14.6559 9.14616 14.6559 8.83496 14.3447Z" fill="#DD236D"/>
<path fill-rule="evenodd" clip-rule="evenodd" d="M14.3125 9C14.3125 9.4401 13.9557 9.79688 13.5156 9.79688L3.82031 9.79687C3.38021 9.79687 3.02344 9.4401 3.02344 9C3.02344 8.5599 3.38021 8.20312 3.82031 8.20312L13.5156 8.20312C13.9557 8.20312 14.3125 8.5599 14.3125 9Z" fill="#DD236D"/>
</svg>
