<svg width="28" height="20" viewBox="0 0 28 20" fill="none" xmlns="http://www.w3.org/2000/svg">
<path d="M18.3753 10C17.2487 10 16.1659 9.49687 15.3127 8.58906C14.487 7.70312 13.9784 6.51641 13.8909 5.25312C13.7979 3.90781 14.2081 2.66641 15.0448 1.76406C15.8815 0.867188 17.0628 0.375 18.3753 0.375C19.6768 0.375 20.8581 0.872656 21.6948 1.76953C22.5424 2.67734 22.9526 3.91328 22.8542 5.24766C22.7612 6.51094 22.2581 7.69766 21.4323 8.58359C20.5846 9.49688 19.5018 10 18.3753 10ZM18.3753 2.125C17.5549 2.125 16.8276 2.42031 16.3299 2.95625C15.8159 3.50859 15.5807 4.25781 15.6409 5.12734C15.701 5.99141 16.0401 6.80078 16.5979 7.39687C17.112 7.94922 17.7463 8.25 18.3753 8.25C19.0096 8.25 19.6385 7.94375 20.1526 7.39687C20.7104 6.80078 21.0495 5.99687 21.1096 5.12734C21.1698 4.28516 20.9237 3.51406 20.4096 2.96719C19.912 2.42031 19.1846 2.125 18.3753 2.125Z" fill="#211F1E"/>
<path d="M25.5825 19.6251H11.1669C10.6911 19.6251 10.2536 19.4118 9.9638 19.0399C9.66302 18.6517 9.55364 18.1267 9.67395 17.629C10.1333 15.7806 11.2763 14.2493 12.9716 13.1938C14.4755 12.2587 16.395 11.7446 18.3693 11.7446C20.3818 11.7446 22.2521 12.2368 23.7669 13.172C25.4677 14.2165 26.6107 15.7587 27.07 17.629C27.1904 18.1267 27.081 18.6517 26.7802 19.0399C26.4958 19.4118 26.0583 19.6251 25.5825 19.6251ZM11.424 17.8751H25.331C24.4286 14.6485 21.0435 13.5001 18.3747 13.5001C15.7169 13.5001 12.3372 14.6485 11.424 17.8751Z" fill="#211F1E"/>
<path d="M8.03909 10.2187C6.11409 10.2187 4.42424 8.43037 4.26565 6.23193C4.18362 5.10537 4.53362 4.06631 5.24456 3.30068C5.95002 2.546 6.93987 2.13037 8.03362 2.13037C9.1219 2.13037 10.1117 2.55146 10.8172 3.31162C11.5336 4.08271 11.8836 5.12178 11.8016 6.2374C11.6539 8.43037 9.95862 10.2187 8.03909 10.2187ZM8.03909 3.8749C7.43752 3.8749 6.90159 4.09365 6.52971 4.49287C6.1469 4.90303 5.96643 5.46084 6.01565 6.10615C6.10862 7.38584 7.03284 8.46865 8.03909 8.46865C9.04534 8.46865 9.97503 7.38584 10.0625 6.10615C10.1063 5.47725 9.92034 4.9085 9.54299 4.49834C9.17112 4.09365 8.63518 3.8749 8.03909 3.8749Z" fill="#211F1E"/>
<path d="M8.42192 17.8749H2.28051C1.84848 17.8749 1.44926 17.678 1.18129 17.3444C0.907854 16.9944 0.809417 16.5132 0.918792 16.0647C1.29614 14.539 2.23676 13.2812 3.63129 12.4171C4.86176 11.6569 6.42582 11.2358 8.03364 11.2358C9.41176 11.2358 10.5875 11.4655 11.6266 11.9413C12.0641 12.1437 12.261 12.6632 12.0586 13.1007C11.8563 13.5382 11.3368 13.7351 10.8993 13.5327C10.0954 13.1663 9.1602 12.9858 8.0391 12.9858C6.04301 12.9858 3.52192 13.8171 2.72348 16.1304H8.42192C8.90317 16.1304 9.29692 16.5241 9.29692 17.0054C9.29692 17.4866 8.90317 17.8749 8.42192 17.8749Z" fill="#211F1E"/>
</svg>
