<svg width="22" height="22" viewBox="0 0 22 22" fill="none" xmlns="http://www.w3.org/2000/svg">
<path d="M17.3274 21.5C16.4124 21.5 15.1271 21.1691 13.2024 20.0937C10.862 18.7812 9.05165 17.5695 6.72383 15.2478C4.47946 13.0048 3.38727 11.5526 1.85868 8.77109C0.131803 5.63046 0.426178 3.98421 0.755241 3.28062C1.14712 2.43968 1.72555 1.93671 2.47321 1.43749C2.89787 1.15926 3.34727 0.920751 3.81571 0.724992C3.86258 0.704836 3.90618 0.685617 3.94508 0.668274C4.17712 0.563742 4.52868 0.405774 4.97399 0.574524C5.27118 0.686086 5.53649 0.914367 5.9518 1.32452C6.80352 2.16452 7.96743 4.0353 8.3968 4.95405C8.68508 5.57327 8.87587 5.98202 8.87633 6.44046C8.87633 6.97718 8.60633 7.39109 8.27868 7.8378C8.21727 7.92171 8.15633 8.00187 8.09727 8.07968C7.74055 8.54843 7.66227 8.6839 7.71383 8.92577C7.81837 9.41187 8.5979 10.8589 9.87899 12.1372C11.1601 13.4155 12.5654 14.1458 13.0534 14.2498C13.3056 14.3037 13.4438 14.2222 13.9276 13.8528C13.997 13.7998 14.0682 13.745 14.1427 13.6901C14.6424 13.3184 15.0371 13.0555 15.5612 13.0555H15.564C16.0201 13.0555 16.4106 13.2533 17.0574 13.5795C17.9012 14.0051 19.8282 15.1541 20.6734 16.0067C21.0845 16.4211 21.3137 16.6855 21.4257 16.9822C21.5945 17.4289 21.4356 17.7791 21.332 18.0134C21.3146 18.0523 21.2954 18.095 21.2752 18.1423C21.0779 18.6099 20.838 19.0584 20.5585 19.482C20.0602 20.2273 19.5554 20.8044 18.7126 21.1967C18.2798 21.4014 17.8062 21.5051 17.3274 21.5Z" fill="#211F1E"/>
</svg>
