<svg width="20" height="15" viewBox="0 0 20 15" fill="none" xmlns="http://www.w3.org/2000/svg">
<path d="M0 2.5C0 1.83696 0.263392 1.20107 0.732233 0.732233C1.20107 0.263392 1.83696 0 2.5 0H17.5C18.163 0 18.7989 0.263392 19.2678 0.732233C19.7366 1.20107 20 1.83696 20 2.5V12.5C20 13.163 19.7366 13.7989 19.2678 14.2678C18.7989 14.7366 18.163 15 17.5 15H2.5C1.83696 15 1.20107 14.7366 0.732233 14.2678C0.263392 13.7989 0 13.163 0 12.5V2.5ZM10.625 3.125C10.625 2.95924 10.5592 2.80027 10.4419 2.68306C10.3247 2.56585 10.1658 2.5 10 2.5C9.83424 2.5 9.67527 2.56585 9.55806 2.68306C9.44085 2.80027 9.375 2.95924 9.375 3.125V11.875C9.375 12.0408 9.44085 12.1997 9.55806 12.3169C9.67527 12.4342 9.83424 12.5 10 12.5C10.1658 12.5 10.3247 12.4342 10.4419 12.3169C10.5592 12.1997 10.625 12.0408 10.625 11.875V3.125ZM2.5 4.375C2.5 4.54076 2.56585 4.69973 2.68306 4.81694C2.80027 4.93415 2.95924 5 3.125 5H7.5C7.66576 5 7.82473 4.93415 7.94194 4.81694C8.05915 4.69973 8.125 4.54076 8.125 4.375C8.125 4.20924 8.05915 4.05027 7.94194 3.93306C7.82473 3.81585 7.66576 3.75 7.5 3.75H3.125C2.95924 3.75 2.80027 3.81585 2.68306 3.93306C2.56585 4.05027 2.5 4.20924 2.5 4.375V4.375ZM3.125 6.25C2.95924 6.25 2.80027 6.31585 2.68306 6.43306C2.56585 6.55027 2.5 6.70924 2.5 6.875C2.5 7.04076 2.56585 7.19973 2.68306 7.31694C2.80027 7.43415 2.95924 7.5 3.125 7.5H7.5C7.66576 7.5 7.82473 7.43415 7.94194 7.31694C8.05915 7.19973 8.125 7.04076 8.125 6.875C8.125 6.70924 8.05915 6.55027 7.94194 6.43306C7.82473 6.31585 7.66576 6.25 7.5 6.25H3.125ZM2.5 9.375C2.5 9.54076 2.56585 9.69973 2.68306 9.81694C2.80027 9.93415 2.95924 10 3.125 10H7.5C7.66576 10 7.82473 9.93415 7.94194 9.81694C8.05915 9.69973 8.125 9.54076 8.125 9.375C8.125 9.20924 8.05915 9.05027 7.94194 8.93306C7.82473 8.81585 7.66576 8.75 7.5 8.75H3.125C2.95924 8.75 2.80027 8.81585 2.68306 8.93306C2.56585 9.05027 2.5 9.20924 2.5 9.375V9.375ZM12.5 4.375V8.125C12.5 8.29076 12.5658 8.44973 12.6831 8.56694C12.8003 8.68415 12.9592 8.75 13.125 8.75H16.875C17.0408 8.75 17.1997 8.68415 17.3169 8.56694C17.4342 8.44973 17.5 8.29076 17.5 8.125V4.375C17.5 4.20924 17.4342 4.05027 17.3169 3.93306C17.1997 3.81585 17.0408 3.75 16.875 3.75H13.125C12.9592 3.75 12.8003 3.81585 12.6831 3.93306C12.5658 4.05027 12.5 4.20924 12.5 4.375Z" fill="#211F1E"/>
</svg>
