<svg width="22" height="22" viewBox="0 0 22 22" fill="none" xmlns="http://www.w3.org/2000/svg">
<g clip-path="url(#clip0_582_10737)">
<path d="M8.93736 22C8.72008 22.0011 8.50765 21.9358 8.32844 21.813C8.14923 21.6901 8.01179 21.5155 7.93447 21.3125L6.22259 16.8609C6.18792 16.7712 6.13488 16.6897 6.06688 16.6217C5.99887 16.5537 5.91741 16.5007 5.82771 16.466L1.37485 14.7529C1.17202 14.675 0.997555 14.5375 0.87449 14.3584C0.751426 14.1794 0.685547 13.9672 0.685547 13.75C0.685547 13.5327 0.751426 13.3206 0.87449 13.1415C0.997555 12.9625 1.17202 12.8249 1.37485 12.7471L5.82642 11.0352C5.91612 11.0005 5.99759 10.9475 6.06559 10.8795C6.13359 10.8115 6.18663 10.73 6.2213 10.6403L7.93447 6.18748C8.01231 5.98464 8.14984 5.81018 8.32889 5.68711C8.50794 5.56405 8.72009 5.49817 8.93736 5.49817C9.15462 5.49817 9.36677 5.56405 9.54582 5.68711C9.72487 5.81018 9.8624 5.98464 9.94025 6.18748L11.6521 10.639C11.6868 10.7287 11.7398 10.8102 11.8078 10.8782C11.8758 10.9462 11.9573 10.9993 12.047 11.0339L16.4728 12.7368C16.6839 12.815 16.8657 12.9564 16.9936 13.1417C17.1215 13.327 17.1891 13.5472 17.1874 13.7723C17.1841 13.9858 17.1168 14.1934 16.9942 14.3682C16.8717 14.543 16.6994 14.677 16.4999 14.7529L12.0483 16.4647C11.9586 16.4994 11.8771 16.5525 11.8091 16.6205C11.7411 16.6885 11.6881 16.7699 11.6534 16.8596L9.94025 21.3125C9.86293 21.5155 9.72548 21.6901 9.54627 21.813C9.36706 21.9358 9.15463 22.0011 8.93736 22Z" fill="#211F1E"/>
<path d="M3.78117 7.5625C3.65379 7.5625 3.5294 7.5239 3.42439 7.4518C3.31939 7.3797 3.23869 7.27747 3.19293 7.1586L2.46847 5.27485C2.45277 5.23365 2.42854 5.19623 2.39736 5.16506C2.36619 5.13388 2.32877 5.10965 2.28758 5.09395L0.403825 4.3695C0.284965 4.32372 0.182758 4.24302 0.110672 4.13801C0.038585 4.033 0 3.90862 0 3.78125C0 3.65388 0.038585 3.5295 0.110672 3.4245C0.182758 3.31949 0.284965 3.23878 0.403825 3.19301L2.28758 2.46856C2.32873 2.45279 2.36611 2.42853 2.39728 2.39736C2.42844 2.36619 2.4527 2.32882 2.46847 2.28766L3.18648 0.420667C3.22697 0.310754 3.29665 0.213954 3.38803 0.14067C3.47941 0.0673855 3.58903 0.0203886 3.70511 0.0047298C3.84448 -0.0122127 3.98552 0.0178562 4.10586 0.0901685C4.2262 0.162481 4.31895 0.272897 4.36941 0.403909L5.09386 2.28766C5.10964 2.32882 5.1339 2.36619 5.16506 2.39736C5.19623 2.42853 5.23361 2.45279 5.27476 2.46856L7.15851 3.19301C7.27737 3.23878 7.37958 3.31949 7.45167 3.4245C7.52375 3.5295 7.56234 3.65388 7.56234 3.78125C7.56234 3.90862 7.52375 4.033 7.45167 4.13801C7.37958 4.24302 7.27737 4.32372 7.15851 4.3695L5.27476 5.09395C5.23356 5.10965 5.19615 5.13388 5.16498 5.16506C5.1338 5.19623 5.10957 5.23365 5.09386 5.27485L4.36941 7.1586C4.32365 7.27747 4.24295 7.3797 4.13794 7.4518C4.03294 7.5239 3.90855 7.5625 3.78117 7.5625Z" fill="#211F1E"/>
<path d="M17.1869 11C17.048 11 16.9123 10.9578 16.7978 10.8791C16.6833 10.8004 16.5953 10.6889 16.5454 10.5592L15.564 8.0081C15.5468 7.96315 15.5202 7.92232 15.4862 7.88827C15.4521 7.85422 15.4113 7.82771 15.3664 7.81044L12.8153 6.82904C12.6857 6.7791 12.5743 6.69107 12.4957 6.57656C12.4171 6.46204 12.375 6.32641 12.375 6.18751C12.375 6.04862 12.4171 5.91298 12.4957 5.79847C12.5743 5.68395 12.6857 5.59593 12.8153 5.54599L15.3664 4.56458C15.4113 4.54732 15.4521 4.5208 15.4862 4.48675C15.5202 4.4527 15.5468 4.41188 15.564 4.36693L16.5381 1.83392C16.5826 1.71414 16.6587 1.60865 16.7583 1.52867C16.858 1.4487 16.9775 1.39723 17.104 1.37974C17.2561 1.36133 17.41 1.39424 17.5412 1.47326C17.6725 1.55227 17.7736 1.67285 17.8285 1.81587L18.8099 4.36693C18.8271 4.41188 18.8537 4.4527 18.8877 4.48675C18.9218 4.5208 18.9626 4.54732 19.0075 4.56458L21.5586 5.54599C21.6882 5.59593 21.7996 5.68395 21.8782 5.79847C21.9568 5.91298 21.9989 6.04862 21.9989 6.18751C21.9989 6.32641 21.9568 6.46204 21.8782 6.57656C21.7996 6.69107 21.6882 6.7791 21.5586 6.82904L19.0075 7.81044C18.9626 7.82771 18.9218 7.85422 18.8877 7.88827C18.8537 7.92232 18.8271 7.96315 18.8099 8.0081L17.8285 10.5592C17.7786 10.6889 17.6906 10.8004 17.5761 10.8791C17.4616 10.9578 17.3259 11 17.1869 11Z" fill="#211F1E"/>
</g>
<defs>
<clipPath id="clip0_582_10737">
<rect width="22" height="22" fill="white"/>
</clipPath>
</defs>
</svg>
