<svg width="49" height="48" viewBox="0 0 49 48" fill="none" xmlns="http://www.w3.org/2000/svg">
<path fill-rule="evenodd" clip-rule="evenodd" d="M19.0981 6.07589C21.4675 1.9747 27.5325 1.9747 29.9019 6.07589L47.195 36.0074C49.519 40.0298 46.5334 45 41.7931 45H7.20692C2.46661 45 -0.519009 40.0299 1.80498 36.0074L19.0981 6.07589ZM27.5987 35.949C27.5987 37.6153 26.2112 38.9661 24.4997 38.9661C22.7882 38.9661 21.4008 37.6153 21.4008 35.949C21.4008 34.2827 22.7882 32.9318 24.4997 32.9318C26.2112 32.9318 27.5987 34.2827 27.5987 35.949ZM24.4997 11.812C22.7882 11.812 21.4008 13.1628 21.4008 14.8291V23.8805C21.4008 25.5468 22.7882 26.8976 24.4997 26.8976C26.2112 26.8976 27.5987 25.5468 27.5987 23.8805V14.8291C27.5987 13.1628 26.2112 11.812 24.4997 11.812Z" fill="#211F1E"/>
</svg>
