<svg width="1920" height="1920" viewBox="0 0 1920 1920" fill="none" xmlns="http://www.w3.org/2000/svg">
<rect width="1920" height="1920" fill="#FFF0F6"/>
<path d="M316.055 1004.14C305.475 1004.14 295.588 1002.84 286.392 1000.23C277.277 997.628 269.546 994.536 263.198 990.955L254.775 999.5H244.399L242.812 936.878H253.311C255.671 942.819 258.682 949.085 262.344 955.677C266.006 962.269 270.238 968.169 275.039 973.377C280.003 978.829 285.537 983.265 291.641 986.683C297.826 990.101 305.028 991.81 313.247 991.81C324.315 991.81 332.778 989.124 338.638 983.753C344.578 978.3 347.549 971.465 347.549 963.245C347.549 956.491 345.026 950.835 339.98 946.277C335.016 941.639 327.285 937.651 316.787 934.314C309.951 932.117 303.644 930.083 297.866 928.211C292.17 926.339 286.799 924.427 281.753 922.474C270.116 917.835 261.449 911.202 255.752 902.576C250.137 893.95 247.329 884.306 247.329 873.646C247.329 866.891 248.794 860.421 251.724 854.236C254.653 847.97 258.926 842.355 264.541 837.391C269.912 832.752 276.789 828.968 285.171 826.038C293.553 823.108 302.668 821.644 312.515 821.644C322.118 821.644 331.11 822.986 339.492 825.672C347.874 828.276 354.466 830.921 359.268 833.606L366.714 826.282H377.334L378.311 885.364H367.812C365.371 879.017 362.482 872.547 359.146 865.955C355.89 859.282 352.432 853.748 348.77 849.354C344.782 844.633 340.184 840.89 334.976 838.123C329.767 835.275 323.664 833.851 316.665 833.851C307.876 833.851 300.674 836.333 295.059 841.297C289.525 846.261 286.758 852.405 286.758 859.729C286.758 866.647 289.159 872.303 293.96 876.697C298.843 881.092 306.411 884.957 316.665 888.294C322.687 890.328 328.831 892.363 335.098 894.397C341.364 896.432 346.938 898.385 351.821 900.257C363.621 904.814 372.573 911.121 378.677 919.178C384.862 927.153 387.954 937.081 387.954 948.963C387.954 956.45 386.204 963.693 382.705 970.691C379.206 977.69 374.486 983.509 368.545 988.147C362.035 993.274 354.507 997.221 345.962 999.988C337.417 1002.76 327.448 1004.14 316.055 1004.14ZM543.96 996.937C540.379 998.483 536.147 999.907 531.265 1001.21C526.382 1002.51 521.214 1003.16 515.762 1003.16C505.752 1003.16 498.387 1001.7 493.667 998.768C488.947 995.757 485.732 991.484 484.023 985.95H483.291C480.524 988.717 477.839 991.077 475.234 993.03C472.712 994.983 469.985 996.652 467.056 998.035C463.231 999.826 459.528 1001.13 455.947 1001.94C452.448 1002.84 447.524 1003.28 441.177 1003.28C431.737 1003.28 423.68 1000.52 417.007 994.983C410.334 989.368 406.997 981.963 406.997 972.767C406.997 967.477 407.729 963.001 409.194 959.339C410.659 955.595 412.734 952.299 415.42 949.451C417.861 946.847 420.669 944.69 423.843 942.981C427.098 941.272 430.638 939.686 434.463 938.221C441.787 935.535 450.576 932.768 460.83 929.92C471.084 926.99 478.571 924.386 483.291 922.107V910.389C483.291 908.354 483.128 905.669 482.803 902.332C482.477 898.995 481.785 896.188 480.728 893.909C479.588 891.305 477.798 889.108 475.356 887.317C472.915 885.527 469.701 884.632 465.713 884.632C462.132 884.632 459.121 885.161 456.68 886.219C454.32 887.195 452.407 888.213 450.942 889.271C451.187 890.898 451.878 893.38 453.018 896.717C454.157 900.053 454.727 903.268 454.727 906.36C454.727 907.744 454.36 909.493 453.628 911.609C452.896 913.644 451.838 915.271 450.454 916.492C448.582 918.12 446.466 919.381 444.106 920.276C441.828 921.172 438.288 921.619 433.486 921.619C426.65 921.619 421.483 919.992 417.983 916.736C414.484 913.4 412.734 909.087 412.734 903.797C412.734 899.24 414.525 895.171 418.105 891.59C421.768 887.928 426.203 884.917 431.411 882.557C436.538 880.115 442.438 878.243 449.111 876.941C455.785 875.558 461.969 874.866 467.666 874.866C475.56 874.866 482.803 875.354 489.395 876.331C495.986 877.226 501.927 879.139 507.217 882.068C512.262 884.917 516.25 889.067 519.18 894.52C522.191 899.891 523.696 906.93 523.696 915.638C523.696 924.834 523.493 935.739 523.086 948.353C522.76 960.966 522.598 969.267 522.598 973.255C522.598 976.917 523.127 979.806 524.185 981.922C525.324 984.038 527.033 985.625 529.312 986.683C530.695 987.334 532.852 987.741 535.781 987.903C538.792 987.985 541.519 988.025 543.96 988.025V996.937ZM483.291 933.338C478.734 934.884 474.217 936.674 469.741 938.709C465.265 940.662 461.603 942.737 458.755 944.935C455.744 947.213 453.384 950.143 451.675 953.724C449.966 957.223 449.111 961.373 449.111 966.175C449.111 972.522 450.535 977.12 453.384 979.969C456.313 982.817 459.894 984.241 464.126 984.241C468.602 984.241 472.264 983.346 475.112 981.556C478.042 979.684 480.605 977.405 482.803 974.72L483.291 933.338ZM627.7 999.5H551.162V990.589C553.278 990.426 555.312 990.223 557.266 989.979C559.3 989.734 561.09 989.327 562.637 988.758C565.241 987.781 566.991 986.398 567.886 984.607C568.862 982.736 569.351 980.294 569.351 977.283V842.029C569.351 838.937 568.7 836.089 567.397 833.484C566.177 830.799 564.508 828.764 562.393 827.381C560.765 826.323 558.283 825.306 554.946 824.329C551.691 823.353 548.802 822.783 546.279 822.62V813.709L607.681 810.535L609.512 812.488V975.696C609.512 978.707 610.041 981.149 611.099 983.021C612.157 984.892 613.866 986.357 616.226 987.415C617.853 988.147 619.562 988.799 621.353 989.368C623.143 989.938 625.259 990.345 627.7 990.589V999.5ZM764.175 892.811C770.197 898.426 774.795 905.14 777.969 912.952C781.143 920.765 782.729 929.228 782.729 938.343C782.729 947.376 781.143 955.921 777.969 963.978C774.876 971.953 770.319 978.789 764.297 984.485C757.868 990.589 750.177 995.268 741.226 998.523C732.355 1001.78 722.183 1003.41 710.708 1003.41C700.78 1003.41 691.624 1001.98 683.242 999.134C674.941 996.285 667.576 992.013 661.147 986.316C654.963 980.864 650.08 974.15 646.499 966.175C642.918 958.118 641.128 949.126 641.128 939.197C641.128 929.432 642.674 920.765 645.767 913.196C648.94 905.547 653.66 898.751 659.927 892.811C665.949 887.114 673.354 882.719 682.144 879.627C691.014 876.453 700.902 874.866 711.807 874.866C723.2 874.866 733.21 876.453 741.836 879.627C750.544 882.719 757.99 887.114 764.175 892.811ZM732.925 977.405C734.715 972.848 736.017 967.314 736.831 960.804C737.726 954.293 738.174 946.725 738.174 938.099C738.174 932.402 737.767 925.892 736.953 918.567C736.139 911.243 734.919 905.465 733.291 901.233C731.338 896.106 728.612 892.078 725.112 889.148C721.694 886.219 717.34 884.754 712.051 884.754C706.273 884.754 701.634 886.341 698.135 889.515C694.717 892.688 692.072 896.798 690.2 901.844C688.491 906.482 687.311 911.935 686.66 918.201C686.009 924.386 685.684 930.856 685.684 937.61C685.684 946.481 685.968 953.846 686.538 959.705C687.108 965.483 688.491 971.302 690.688 977.161C692.56 982.207 695.246 986.194 698.745 989.124C702.244 992.054 706.68 993.519 712.051 993.519C716.934 993.519 721.125 992.176 724.624 989.49C728.123 986.723 730.89 982.695 732.925 977.405ZM959.609 999.5H886.123V990.589C887.669 990.426 889.541 990.223 891.738 989.979C893.936 989.734 895.604 989.327 896.743 988.758C898.452 987.863 899.673 986.561 900.405 984.852C901.138 983.143 901.504 980.62 901.504 977.283V920.154C901.504 911.854 899.958 905.628 896.865 901.478C893.854 897.246 889.378 895.13 883.438 895.13C880.182 895.13 877.131 895.618 874.282 896.595C871.515 897.571 868.789 898.995 866.104 900.867C863.743 902.495 861.831 904.163 860.366 905.872C858.983 907.581 857.803 909.087 856.826 910.389V975.94C856.826 978.789 857.233 981.189 858.047 983.143C858.861 985.014 860.203 986.438 862.075 987.415C863.377 988.147 865.005 988.799 866.958 989.368C868.911 989.938 870.824 990.345 872.695 990.589V999.5H798.477V990.589C800.511 990.426 802.546 990.223 804.58 989.979C806.696 989.653 808.486 989.246 809.951 988.758C812.555 987.863 814.346 986.479 815.322 984.607C816.299 982.736 816.787 980.294 816.787 977.283V906.238C816.787 903.715 816.136 901.233 814.834 898.792C813.532 896.351 811.823 894.357 809.707 892.811C808.242 891.834 806.37 891.02 804.092 890.369C801.895 889.718 799.453 889.271 796.768 889.026V880.115L854.995 876.941L856.826 878.772V896.473H857.314C859.593 894.438 862.36 891.997 865.615 889.148C868.87 886.3 871.882 883.981 874.648 882.19C877.66 880.237 881.606 878.569 886.489 877.186C891.372 875.802 896.58 875.11 902.114 875.11C915.379 875.11 925.308 878.895 931.899 886.463C938.573 893.95 941.909 903.919 941.909 916.37V976.185C941.909 979.196 942.357 981.596 943.252 983.387C944.147 985.177 945.815 986.601 948.257 987.659C949.559 988.229 951.146 988.799 953.018 989.368C954.971 989.938 957.168 990.345 959.609 990.589V999.5ZM1196.91 875.843H1187.51C1184.99 868.437 1180.92 860.503 1175.31 852.039C1169.77 843.576 1164.65 839.018 1159.93 838.367C1157.32 838.042 1154.11 837.757 1150.28 837.513C1146.46 837.269 1143.16 837.146 1140.4 837.146H1134.66V973.011C1134.66 975.94 1135.19 978.545 1136.25 980.823C1137.3 983.021 1139.38 984.77 1142.47 986.072C1144.34 986.805 1147.23 987.578 1151.14 988.392C1155.13 989.124 1158.5 989.653 1161.27 989.979V999.5H1064.71V989.979C1067.07 989.734 1070.37 989.409 1074.6 989.002C1078.91 988.514 1081.84 987.944 1083.39 987.293C1086.56 985.991 1088.68 984.241 1089.74 982.044C1090.79 979.847 1091.32 977.243 1091.32 974.231V837.146H1085.59C1082.82 837.146 1079.52 837.269 1075.7 837.513C1071.87 837.757 1068.66 838.042 1066.05 838.367C1061.33 839.018 1056.17 843.576 1050.55 852.039C1045.02 860.503 1040.99 868.437 1038.47 875.843H1029.07V826.282H1196.91V875.843ZM1282.85 999.5H1205.7V990.589C1207.82 990.426 1209.89 990.223 1211.93 989.979C1213.96 989.734 1215.71 989.327 1217.18 988.758C1219.78 987.781 1221.61 986.398 1222.67 984.607C1223.73 982.736 1224.26 980.294 1224.26 977.283V906.238C1224.26 903.39 1223.61 900.908 1222.3 898.792C1221 896.595 1219.38 894.845 1217.42 893.543C1215.96 892.566 1213.72 891.631 1210.71 890.735C1207.78 889.84 1205.09 889.271 1202.65 889.026V880.115L1262.47 876.941L1264.3 878.772V975.696C1264.3 978.545 1264.91 980.986 1266.13 983.021C1267.35 984.974 1269.1 986.438 1271.38 987.415C1273 988.147 1274.79 988.799 1276.75 989.368C1278.7 989.938 1280.74 990.345 1282.85 990.589V999.5ZM1265.03 832.996C1265.03 839.181 1262.63 844.471 1257.83 848.865C1253.11 853.178 1247.49 855.335 1240.98 855.335C1234.39 855.335 1228.69 853.178 1223.89 848.865C1219.17 844.471 1216.81 839.181 1216.81 832.996C1216.81 826.811 1219.17 821.521 1223.89 817.127C1228.69 812.732 1234.39 810.535 1240.98 810.535C1247.57 810.535 1253.23 812.732 1257.95 817.127C1262.67 821.521 1265.03 826.811 1265.03 832.996ZM1536.64 999.5H1463.88V990.589C1465.67 990.345 1467.54 990.141 1469.5 989.979C1471.45 989.816 1473.08 989.409 1474.38 988.758C1476.17 987.944 1477.31 986.601 1477.8 984.729C1478.29 982.776 1478.53 980.294 1478.53 977.283V920.276C1478.53 911.894 1477.02 905.628 1474.01 901.478C1471.08 897.246 1466.85 895.13 1461.32 895.13C1457.82 895.13 1454.69 895.7 1451.92 896.839C1449.23 897.897 1446.75 899.24 1444.47 900.867C1442.11 902.576 1440.28 904.285 1438.98 905.994C1437.68 907.703 1436.58 909.168 1435.68 910.389V975.94C1435.68 978.87 1436.01 981.271 1436.66 983.143C1437.39 984.933 1438.69 986.357 1440.57 987.415C1441.87 988.147 1443.33 988.799 1444.96 989.368C1446.67 989.938 1448.46 990.345 1450.33 990.589V999.5H1380.63V990.589C1382.18 990.426 1384.05 990.223 1386.25 989.979C1388.44 989.734 1390.07 989.327 1391.13 988.758C1392.84 987.863 1393.94 986.561 1394.42 984.852C1394.99 983.143 1395.28 980.62 1395.28 977.283V920.276C1395.28 911.894 1393.77 905.628 1390.76 901.478C1387.83 897.246 1383.6 895.13 1378.07 895.13C1374.57 895.13 1371.43 895.7 1368.67 896.839C1365.98 897.897 1363.5 899.24 1361.22 900.867C1358.86 902.576 1357.03 904.285 1355.73 905.994C1354.43 907.703 1353.33 909.168 1352.43 910.389V975.94C1352.43 978.789 1352.8 981.149 1353.53 983.021C1354.26 984.892 1355.56 986.357 1357.44 987.415C1358.74 988.147 1360.2 988.799 1361.83 989.368C1363.54 989.938 1365.33 990.345 1367.2 990.589V999.5H1294.08V990.589C1296.2 990.426 1298.27 990.223 1300.31 989.979C1302.34 989.734 1304.09 989.327 1305.56 988.758C1308.16 987.781 1309.95 986.398 1310.93 984.607C1311.9 982.736 1312.39 980.294 1312.39 977.283V906.238C1312.39 903.634 1311.7 901.111 1310.32 898.67C1308.93 896.147 1307.27 894.194 1305.31 892.811C1303.85 891.834 1301.98 891.02 1299.7 890.369C1297.5 889.718 1295.06 889.271 1292.37 889.026V880.115L1350.6 876.941L1352.43 878.772V895.984H1352.92C1355.2 893.95 1357.88 891.549 1360.98 888.782C1364.15 885.934 1367.12 883.655 1369.89 881.946C1372.9 879.993 1376.76 878.366 1381.48 877.063C1386.2 875.761 1391.37 875.11 1396.99 875.11C1406.26 875.11 1414 877.145 1420.18 881.214C1426.45 885.201 1430.88 890.532 1433.49 897.205H1434.58C1436.94 895.008 1439.83 892.444 1443.25 889.515C1446.67 886.504 1449.8 884.103 1452.65 882.312C1455.83 880.278 1459.85 878.569 1464.74 877.186C1469.7 875.802 1474.99 875.11 1480.61 875.11C1492.89 875.11 1502.33 878.732 1508.93 885.975C1515.6 893.217 1518.94 903.512 1518.94 916.858V976.185C1518.94 979.196 1519.38 981.637 1520.28 983.509C1521.17 985.299 1522.8 986.683 1525.16 987.659C1526.46 988.229 1528.05 988.799 1529.92 989.368C1531.88 989.938 1534.11 990.345 1536.64 990.589V999.5ZM1679.21 970.325C1676.37 974.964 1672.91 979.358 1668.84 983.509C1664.85 987.578 1660.29 991.077 1655.17 994.007C1649.71 997.099 1644.18 999.419 1638.56 1000.96C1633.03 1002.59 1626.64 1003.41 1619.4 1003.41C1607.36 1003.41 1596.94 1001.7 1588.15 998.279C1579.44 994.861 1572.24 990.263 1566.54 984.485C1560.85 978.707 1556.57 971.912 1553.73 964.1C1550.96 956.206 1549.58 947.661 1549.58 938.465C1549.58 930.164 1551.08 922.229 1554.09 914.661C1557.18 907.011 1561.54 900.216 1567.15 894.275C1572.69 888.497 1579.65 883.818 1588.03 880.237C1596.49 876.657 1605.93 874.866 1616.35 874.866C1627.74 874.866 1637.1 876.25 1644.42 879.017C1651.75 881.784 1657.81 885.608 1662.61 890.491C1667.25 895.13 1670.63 900.623 1672.74 906.971C1674.86 913.237 1675.92 919.829 1675.92 926.746V934.681H1593.4C1593.4 951.364 1596.61 964.059 1603.04 972.767C1609.47 981.474 1619.68 985.828 1633.68 985.828C1641.33 985.828 1648.21 983.753 1654.31 979.603C1660.42 975.371 1665.62 970.04 1669.94 963.611L1679.21 970.325ZM1632.58 923.938C1632.58 919.056 1632.34 914.051 1631.85 908.924C1631.36 903.797 1630.51 899.606 1629.29 896.351C1627.9 892.526 1625.99 889.637 1623.55 887.684C1621.19 885.73 1618.18 884.754 1614.52 884.754C1608.25 884.754 1603.25 887.928 1599.5 894.275C1595.76 900.623 1593.72 910.674 1593.4 924.427L1632.58 923.938Z" fill="#DD236D"/>
<path d="M318.224 1149.5H313.724L272.524 1086.7V1149.5H268.024V1079.4H272.524L313.724 1142V1079.4H318.224V1149.5ZM431.023 1150.3C424.557 1150.3 418.723 1148.8 413.523 1145.8C408.323 1142.73 404.257 1138.47 401.323 1133C398.39 1127.53 396.923 1121.37 396.923 1114.5C396.923 1107.57 398.39 1101.4 401.323 1096C404.257 1090.53 408.323 1086.3 413.523 1083.3C418.723 1080.23 424.557 1078.7 431.023 1078.7C437.49 1078.7 443.323 1080.23 448.523 1083.3C453.723 1086.3 457.79 1090.53 460.723 1096C463.657 1101.4 465.123 1107.57 465.123 1114.5C465.123 1121.37 463.657 1127.53 460.723 1133C457.79 1138.47 453.723 1142.73 448.523 1145.8C443.323 1148.8 437.49 1150.3 431.023 1150.3ZM431.023 1146.3C436.557 1146.3 441.557 1145 446.023 1142.4C450.49 1139.8 453.99 1136.1 456.523 1131.3C459.123 1126.5 460.423 1120.9 460.423 1114.5C460.423 1108.03 459.123 1102.4 456.523 1097.6C453.99 1092.8 450.49 1089.1 446.023 1086.5C441.557 1083.9 436.557 1082.6 431.023 1082.6C425.49 1082.6 420.49 1083.9 416.023 1086.5C411.557 1089.1 408.023 1092.8 405.423 1097.6C402.823 1102.4 401.523 1108.03 401.523 1114.5C401.523 1120.9 402.823 1126.5 405.423 1131.3C408.023 1136.1 411.557 1139.8 416.023 1142.4C420.49 1145 425.49 1146.3 431.023 1146.3ZM657.25 1150.2C652.717 1150.2 648.75 1149.4 645.35 1147.8C641.95 1146.2 639.283 1144.03 637.35 1141.3C635.483 1138.57 634.417 1135.53 634.15 1132.2H638.85C639.383 1135.87 641.083 1139.13 643.95 1142C646.883 1144.87 651.317 1146.3 657.25 1146.3C660.717 1146.3 663.717 1145.67 666.25 1144.4C668.85 1143.13 670.85 1141.4 672.25 1139.2C673.65 1137 674.35 1134.57 674.35 1131.9C674.35 1128.5 673.517 1125.8 671.85 1123.8C670.25 1121.8 668.217 1120.3 665.75 1119.3C663.35 1118.3 660.083 1117.23 655.95 1116.1C651.417 1114.9 647.75 1113.7 644.95 1112.5C642.217 1111.3 639.883 1109.47 637.95 1107C636.083 1104.47 635.15 1101.03 635.15 1096.7C635.15 1093.37 636.017 1090.33 637.75 1087.6C639.55 1084.8 642.083 1082.6 645.35 1081C648.617 1079.4 652.383 1078.6 656.65 1078.6C662.85 1078.6 667.85 1080.13 671.65 1083.2C675.45 1086.27 677.717 1090.03 678.45 1094.5H673.65C673.25 1092.7 672.35 1090.87 670.95 1089C669.617 1087.13 667.683 1085.6 665.15 1084.4C662.683 1083.13 659.717 1082.5 656.25 1082.5C651.583 1082.5 647.65 1083.8 644.45 1086.4C641.25 1088.93 639.65 1092.33 639.65 1096.6C639.65 1100 640.483 1102.73 642.15 1104.8C643.817 1106.8 645.85 1108.33 648.25 1109.4C650.717 1110.4 654.017 1111.43 658.15 1112.5C662.75 1113.77 666.383 1115 669.05 1116.2C671.783 1117.33 674.083 1119.17 675.95 1121.7C677.883 1124.17 678.85 1127.53 678.85 1131.8C678.85 1134.93 678.017 1137.9 676.35 1140.7C674.683 1143.5 672.217 1145.8 668.95 1147.6C665.75 1149.33 661.85 1150.2 657.25 1150.2ZM761.821 1083.1V1112.4H789.821V1116.2H761.821V1145.7H792.821V1149.5H757.321V1079.3H792.821V1083.1H761.821ZM875.542 1079.3V1123.2C875.542 1131.13 877.342 1136.97 880.942 1140.7C884.542 1144.37 889.442 1146.2 895.642 1146.2C901.776 1146.2 906.609 1144.37 910.142 1140.7C913.676 1137.03 915.442 1131.2 915.442 1123.2V1079.3H919.942V1123.1C919.942 1132.23 917.742 1139.03 913.342 1143.5C908.942 1147.97 903.042 1150.2 895.642 1150.2C888.242 1150.2 882.276 1147.97 877.742 1143.5C873.276 1138.97 871.042 1132.17 871.042 1123.1V1079.3H875.542ZM1132.92 1079.3V1083.1H1112.92V1149.5H1108.42V1083.1H1088.42V1079.3H1132.92ZM1213.13 1083.1V1112.4H1241.13V1116.2H1213.13V1145.7H1244.13V1149.5H1208.63V1079.3H1244.13V1083.1H1213.13ZM1388.25 1080.8V1149.5H1383.75V1090.2L1357.35 1149.5H1353.75L1327.25 1090.2V1149.5H1322.75V1080.8H1327.55L1355.55 1143.6L1383.55 1080.8H1388.25ZM1512.28 1099.1C1512.28 1105.3 1510.35 1110.13 1506.48 1113.6C1502.62 1117 1496.88 1118.7 1489.28 1118.7H1474.28V1149.5H1469.78V1079.3H1489.28C1497.02 1079.3 1502.78 1081.1 1506.58 1084.7C1510.38 1088.23 1512.28 1093.03 1512.28 1099.1ZM1489.28 1114.7C1501.62 1114.7 1507.78 1109.5 1507.78 1099.1C1507.78 1093.97 1506.32 1090.07 1503.38 1087.4C1500.45 1084.67 1495.75 1083.3 1489.28 1083.3H1474.28V1114.7H1489.28ZM1620.67 1150.3C1614.21 1150.3 1608.37 1148.8 1603.17 1145.8C1597.97 1142.73 1593.91 1138.47 1590.97 1133C1588.04 1127.53 1586.57 1121.37 1586.57 1114.5C1586.57 1107.57 1588.04 1101.4 1590.97 1096C1593.91 1090.53 1597.97 1086.3 1603.17 1083.3C1608.37 1080.23 1614.21 1078.7 1620.67 1078.7C1627.14 1078.7 1632.97 1080.23 1638.17 1083.3C1643.37 1086.3 1647.44 1090.53 1650.37 1096C1653.31 1101.4 1654.77 1107.57 1654.77 1114.5C1654.77 1121.37 1653.31 1127.53 1650.37 1133C1647.44 1138.47 1643.37 1142.73 1638.17 1145.8C1632.97 1148.8 1627.14 1150.3 1620.67 1150.3ZM1620.67 1146.3C1626.21 1146.3 1631.21 1145 1635.67 1142.4C1640.14 1139.8 1643.64 1136.1 1646.17 1131.3C1648.77 1126.5 1650.07 1120.9 1650.07 1114.5C1650.07 1108.03 1648.77 1102.4 1646.17 1097.6C1643.64 1092.8 1640.14 1089.1 1635.67 1086.5C1631.21 1083.9 1626.21 1082.6 1620.67 1082.6C1615.14 1082.6 1610.14 1083.9 1605.67 1086.5C1601.21 1089.1 1597.67 1092.8 1595.07 1097.6C1592.47 1102.4 1591.17 1108.03 1591.17 1114.5C1591.17 1120.9 1592.47 1126.5 1595.07 1131.3C1597.67 1136.1 1601.21 1139.8 1605.67 1142.4C1610.14 1145 1615.14 1146.3 1620.67 1146.3Z" fill="#DD236D"/>
</svg>
