<svg width="1649" height="579" viewBox="0 0 1649 579" fill="none" xmlns="http://www.w3.org/2000/svg">
<path d="M181.055 333.639C170.475 333.639 160.588 332.337 151.392 329.732C142.277 327.128 134.546 324.036 128.198 320.455L119.775 329H109.399L107.812 266.378H118.311C120.671 272.319 123.682 278.585 127.344 285.177C131.006 291.769 135.238 297.669 140.039 302.877C145.003 308.329 150.537 312.765 156.641 316.183C162.826 319.601 170.028 321.31 178.247 321.31C189.315 321.31 197.778 318.624 203.638 313.253C209.578 307.8 212.549 300.965 212.549 292.745C212.549 285.991 210.026 280.335 204.98 275.777C200.016 271.139 192.285 267.151 181.787 263.814C174.951 261.617 168.644 259.583 162.866 257.711C157.17 255.839 151.799 253.927 146.753 251.974C135.116 247.335 126.449 240.702 120.752 232.076C115.137 223.45 112.329 213.806 112.329 203.146C112.329 196.391 113.794 189.921 116.724 183.736C119.653 177.47 123.926 171.855 129.541 166.891C134.912 162.252 141.789 158.468 150.171 155.538C158.553 152.608 167.668 151.144 177.515 151.144C187.118 151.144 196.11 152.486 204.492 155.172C212.874 157.776 219.466 160.421 224.268 163.106L231.714 155.782H242.334L243.311 214.864H232.812C230.371 208.517 227.482 202.047 224.146 195.455C220.89 188.782 217.432 183.248 213.77 178.854C209.782 174.133 205.184 170.39 199.976 167.623C194.767 164.775 188.664 163.351 181.665 163.351C172.876 163.351 165.674 165.833 160.059 170.797C154.525 175.761 151.758 181.905 151.758 189.229C151.758 196.147 154.159 201.803 158.96 206.197C163.843 210.592 171.411 214.457 181.665 217.794C187.687 219.828 193.831 221.863 200.098 223.897C206.364 225.932 211.938 227.885 216.821 229.757C228.621 234.314 237.573 240.621 243.677 248.678C249.862 256.653 252.954 266.581 252.954 278.463C252.954 285.95 251.204 293.193 247.705 300.191C244.206 307.19 239.486 313.009 233.545 317.647C227.035 322.774 219.507 326.721 210.962 329.488C202.417 332.255 192.448 333.639 181.055 333.639ZM408.96 326.437C405.379 327.983 401.147 329.407 396.265 330.709C391.382 332.011 386.214 332.662 380.762 332.662C370.752 332.662 363.387 331.197 358.667 328.268C353.947 325.257 350.732 320.984 349.023 315.45H348.291C345.524 318.217 342.839 320.577 340.234 322.53C337.712 324.483 334.985 326.152 332.056 327.535C328.231 329.326 324.528 330.628 320.947 331.441C317.448 332.337 312.524 332.784 306.177 332.784C296.737 332.784 288.68 330.017 282.007 324.483C275.334 318.868 271.997 311.463 271.997 302.267C271.997 296.977 272.729 292.501 274.194 288.839C275.659 285.095 277.734 281.799 280.42 278.951C282.861 276.347 285.669 274.19 288.843 272.481C292.098 270.772 295.638 269.186 299.463 267.721C306.787 265.035 315.576 262.268 325.83 259.42C336.084 256.49 343.571 253.886 348.291 251.607V239.889C348.291 237.854 348.128 235.169 347.803 231.832C347.477 228.495 346.785 225.688 345.728 223.409C344.588 220.805 342.798 218.608 340.356 216.817C337.915 215.027 334.701 214.132 330.713 214.132C327.132 214.132 324.121 214.661 321.68 215.719C319.32 216.695 317.407 217.713 315.942 218.771C316.187 220.398 316.878 222.88 318.018 226.217C319.157 229.553 319.727 232.768 319.727 235.86C319.727 237.244 319.36 238.993 318.628 241.109C317.896 243.144 316.838 244.771 315.454 245.992C313.582 247.62 311.466 248.881 309.106 249.776C306.828 250.672 303.288 251.119 298.486 251.119C291.65 251.119 286.483 249.492 282.983 246.236C279.484 242.9 277.734 238.587 277.734 233.297C277.734 228.74 279.525 224.671 283.105 221.09C286.768 217.428 291.203 214.417 296.411 212.057C301.538 209.615 307.438 207.743 314.111 206.441C320.785 205.058 326.969 204.366 332.666 204.366C340.56 204.366 347.803 204.854 354.395 205.831C360.986 206.726 366.927 208.639 372.217 211.568C377.262 214.417 381.25 218.567 384.18 224.02C387.191 229.391 388.696 236.43 388.696 245.138C388.696 254.334 388.493 265.239 388.086 277.853C387.76 290.466 387.598 298.767 387.598 302.755C387.598 306.417 388.127 309.306 389.185 311.422C390.324 313.538 392.033 315.125 394.312 316.183C395.695 316.834 397.852 317.241 400.781 317.403C403.792 317.485 406.519 317.525 408.96 317.525V326.437ZM348.291 262.838C343.734 264.384 339.217 266.174 334.741 268.209C330.265 270.162 326.603 272.237 323.755 274.435C320.744 276.713 318.384 279.643 316.675 283.224C314.966 286.723 314.111 290.873 314.111 295.675C314.111 302.022 315.535 306.62 318.384 309.469C321.313 312.317 324.894 313.741 329.126 313.741C333.602 313.741 337.264 312.846 340.112 311.056C343.042 309.184 345.605 306.905 347.803 304.22L348.291 262.838ZM492.7 329H416.162V320.089C418.278 319.926 420.312 319.723 422.266 319.479C424.3 319.234 426.09 318.827 427.637 318.258C430.241 317.281 431.991 315.898 432.886 314.107C433.862 312.236 434.351 309.794 434.351 306.783V171.529C434.351 168.437 433.7 165.589 432.397 162.984C431.177 160.299 429.508 158.264 427.393 156.881C425.765 155.823 423.283 154.806 419.946 153.829C416.691 152.853 413.802 152.283 411.279 152.12V143.209L472.681 140.035L474.512 141.988V305.196C474.512 308.207 475.041 310.649 476.099 312.521C477.157 314.392 478.866 315.857 481.226 316.915C482.853 317.647 484.562 318.299 486.353 318.868C488.143 319.438 490.259 319.845 492.7 320.089V329ZM629.175 222.311C635.197 227.926 639.795 234.64 642.969 242.452C646.143 250.265 647.729 258.728 647.729 267.843C647.729 276.876 646.143 285.421 642.969 293.478C639.876 301.453 635.319 308.289 629.297 313.985C622.868 320.089 615.177 324.768 606.226 328.023C597.355 331.279 587.183 332.906 575.708 332.906C565.78 332.906 556.624 331.482 548.242 328.634C539.941 325.785 532.576 321.513 526.147 315.816C519.963 310.364 515.08 303.65 511.499 295.675C507.918 287.618 506.128 278.626 506.128 268.697C506.128 258.932 507.674 250.265 510.767 242.696C513.94 235.047 518.66 228.251 524.927 222.311C530.949 216.614 538.354 212.219 547.144 209.127C556.014 205.953 565.902 204.366 576.807 204.366C588.2 204.366 598.21 205.953 606.836 209.127C615.544 212.219 622.99 216.614 629.175 222.311ZM597.925 306.905C599.715 302.348 601.017 296.814 601.831 290.304C602.726 283.793 603.174 276.225 603.174 267.599C603.174 261.902 602.767 255.392 601.953 248.067C601.139 240.743 599.919 234.965 598.291 230.733C596.338 225.606 593.612 221.578 590.112 218.648C586.694 215.719 582.34 214.254 577.051 214.254C571.273 214.254 566.634 215.841 563.135 219.015C559.717 222.188 557.072 226.298 555.2 231.344C553.491 235.982 552.311 241.435 551.66 247.701C551.009 253.886 550.684 260.356 550.684 267.11C550.684 275.981 550.968 283.346 551.538 289.205C552.108 294.983 553.491 300.802 555.688 306.661C557.56 311.707 560.246 315.694 563.745 318.624C567.244 321.554 571.68 323.019 577.051 323.019C581.934 323.019 586.125 321.676 589.624 318.99C593.123 316.223 595.89 312.195 597.925 306.905ZM824.609 329H751.123V320.089C752.669 319.926 754.541 319.723 756.738 319.479C758.936 319.234 760.604 318.827 761.743 318.258C763.452 317.363 764.673 316.061 765.405 314.352C766.138 312.643 766.504 310.12 766.504 306.783V249.654C766.504 241.354 764.958 235.128 761.865 230.978C758.854 226.746 754.378 224.63 748.438 224.63C745.182 224.63 742.131 225.118 739.282 226.095C736.515 227.071 733.789 228.495 731.104 230.367C728.743 231.995 726.831 233.663 725.366 235.372C723.983 237.081 722.803 238.587 721.826 239.889V305.44C721.826 308.289 722.233 310.689 723.047 312.643C723.861 314.514 725.203 315.938 727.075 316.915C728.377 317.647 730.005 318.299 731.958 318.868C733.911 319.438 735.824 319.845 737.695 320.089V329H663.477V320.089C665.511 319.926 667.546 319.723 669.58 319.479C671.696 319.153 673.486 318.746 674.951 318.258C677.555 317.363 679.346 315.979 680.322 314.107C681.299 312.236 681.787 309.794 681.787 306.783V235.738C681.787 233.215 681.136 230.733 679.834 228.292C678.532 225.851 676.823 223.857 674.707 222.311C673.242 221.334 671.37 220.52 669.092 219.869C666.895 219.218 664.453 218.771 661.768 218.526V209.615L719.995 206.441L721.826 208.272V225.973H722.314C724.593 223.938 727.36 221.497 730.615 218.648C733.87 215.8 736.882 213.481 739.648 211.69C742.66 209.737 746.606 208.069 751.489 206.686C756.372 205.302 761.58 204.61 767.114 204.61C780.379 204.61 790.308 208.395 796.899 215.963C803.573 223.45 806.909 233.419 806.909 245.87V305.685C806.909 308.696 807.357 311.096 808.252 312.887C809.147 314.677 810.815 316.101 813.257 317.159C814.559 317.729 816.146 318.299 818.018 318.868C819.971 319.438 822.168 319.845 824.609 320.089V329ZM1061.91 205.343H1052.51C1049.99 197.937 1045.92 190.003 1040.31 181.539C1034.77 173.076 1029.65 168.518 1024.93 167.867C1022.32 167.542 1019.11 167.257 1015.28 167.013C1011.46 166.769 1008.16 166.646 1005.4 166.646H999.658V302.511C999.658 305.44 1000.19 308.045 1001.25 310.323C1002.3 312.521 1004.38 314.27 1007.47 315.572C1009.34 316.305 1012.23 317.078 1016.14 317.892C1020.13 318.624 1023.5 319.153 1026.27 319.479V329H929.712V319.479C932.072 319.234 935.368 318.909 939.6 318.502C943.913 318.014 946.842 317.444 948.389 316.793C951.562 315.491 953.678 313.741 954.736 311.544C955.794 309.347 956.323 306.743 956.323 303.731V166.646H950.586C947.819 166.646 944.523 166.769 940.698 167.013C936.873 167.257 933.659 167.542 931.055 167.867C926.335 168.518 921.167 173.076 915.552 181.539C910.018 190.003 905.99 197.937 903.467 205.343H894.067V155.782H1061.91V205.343ZM1147.85 329H1070.7V320.089C1072.82 319.926 1074.89 319.723 1076.93 319.479C1078.96 319.234 1080.71 318.827 1082.18 318.258C1084.78 317.281 1086.61 315.898 1087.67 314.107C1088.73 312.236 1089.26 309.794 1089.26 306.783V235.738C1089.26 232.89 1088.61 230.408 1087.3 228.292C1086 226.095 1084.38 224.345 1082.42 223.043C1080.96 222.066 1078.72 221.131 1075.71 220.235C1072.78 219.34 1070.09 218.771 1067.65 218.526V209.615L1127.47 206.441L1129.3 208.272V305.196C1129.3 308.045 1129.91 310.486 1131.13 312.521C1132.35 314.474 1134.1 315.938 1136.38 316.915C1138 317.647 1139.79 318.299 1141.75 318.868C1143.7 319.438 1145.74 319.845 1147.85 320.089V329ZM1130.03 162.496C1130.03 168.681 1127.63 173.971 1122.83 178.365C1118.11 182.678 1112.49 184.835 1105.98 184.835C1099.39 184.835 1093.69 182.678 1088.89 178.365C1084.17 173.971 1081.81 168.681 1081.81 162.496C1081.81 156.311 1084.17 151.021 1088.89 146.627C1093.69 142.232 1099.39 140.035 1105.98 140.035C1112.57 140.035 1118.23 142.232 1122.95 146.627C1127.67 151.021 1130.03 156.311 1130.03 162.496ZM1401.64 329H1328.88V320.089C1330.67 319.845 1332.54 319.641 1334.5 319.479C1336.45 319.316 1338.08 318.909 1339.38 318.258C1341.17 317.444 1342.31 316.101 1342.8 314.229C1343.29 312.276 1343.53 309.794 1343.53 306.783V249.776C1343.53 241.394 1342.02 235.128 1339.01 230.978C1336.08 226.746 1331.85 224.63 1326.32 224.63C1322.82 224.63 1319.69 225.2 1316.92 226.339C1314.23 227.397 1311.75 228.74 1309.47 230.367C1307.11 232.076 1305.28 233.785 1303.98 235.494C1302.68 237.203 1301.58 238.668 1300.68 239.889V305.44C1300.68 308.37 1301.01 310.771 1301.66 312.643C1302.39 314.433 1303.69 315.857 1305.57 316.915C1306.87 317.647 1308.33 318.299 1309.96 318.868C1311.67 319.438 1313.46 319.845 1315.33 320.089V329H1245.63V320.089C1247.18 319.926 1249.05 319.723 1251.25 319.479C1253.44 319.234 1255.07 318.827 1256.13 318.258C1257.84 317.363 1258.94 316.061 1259.42 314.352C1259.99 312.643 1260.28 310.12 1260.28 306.783V249.776C1260.28 241.394 1258.77 235.128 1255.76 230.978C1252.83 226.746 1248.6 224.63 1243.07 224.63C1239.57 224.63 1236.43 225.2 1233.67 226.339C1230.98 227.397 1228.5 228.74 1226.22 230.367C1223.86 232.076 1222.03 233.785 1220.73 235.494C1219.43 237.203 1218.33 238.668 1217.43 239.889V305.44C1217.43 308.289 1217.8 310.649 1218.53 312.521C1219.26 314.392 1220.56 315.857 1222.44 316.915C1223.74 317.647 1225.2 318.299 1226.83 318.868C1228.54 319.438 1230.33 319.845 1232.2 320.089V329H1159.08V320.089C1161.2 319.926 1163.27 319.723 1165.31 319.479C1167.34 319.234 1169.09 318.827 1170.56 318.258C1173.16 317.281 1174.95 315.898 1175.93 314.107C1176.9 312.236 1177.39 309.794 1177.39 306.783V235.738C1177.39 233.134 1176.7 230.611 1175.32 228.17C1173.93 225.647 1172.27 223.694 1170.31 222.311C1168.85 221.334 1166.98 220.52 1164.7 219.869C1162.5 219.218 1160.06 218.771 1157.37 218.526V209.615L1215.6 206.441L1217.43 208.272V225.484H1217.92C1220.2 223.45 1222.88 221.049 1225.98 218.282C1229.15 215.434 1232.12 213.155 1234.89 211.446C1237.9 209.493 1241.76 207.866 1246.48 206.563C1251.2 205.261 1256.37 204.61 1261.99 204.61C1271.26 204.61 1279 206.645 1285.18 210.714C1291.45 214.701 1295.88 220.032 1298.49 226.705H1299.58C1301.94 224.508 1304.83 221.944 1308.25 219.015C1311.67 216.004 1314.8 213.603 1317.65 211.812C1320.83 209.778 1324.85 208.069 1329.74 206.686C1334.7 205.302 1339.99 204.61 1345.61 204.61C1357.89 204.61 1367.33 208.232 1373.93 215.475C1380.6 222.717 1383.94 233.012 1383.94 246.358V305.685C1383.94 308.696 1384.38 311.137 1385.28 313.009C1386.17 314.799 1387.8 316.183 1390.16 317.159C1391.46 317.729 1393.05 318.299 1394.92 318.868C1396.88 319.438 1399.11 319.845 1401.64 320.089V329ZM1544.21 299.825C1541.37 304.464 1537.91 308.858 1533.84 313.009C1529.85 317.078 1525.29 320.577 1520.17 323.507C1514.71 326.599 1509.18 328.919 1503.56 330.465C1498.03 332.092 1491.64 332.906 1484.4 332.906C1472.36 332.906 1461.94 331.197 1453.15 327.779C1444.44 324.361 1437.24 319.763 1431.54 313.985C1425.85 308.207 1421.57 301.412 1418.73 293.6C1415.96 285.706 1414.58 277.161 1414.58 267.965C1414.58 259.664 1416.08 251.729 1419.09 244.161C1422.18 236.511 1426.54 229.716 1432.15 223.775C1437.69 217.997 1444.65 213.318 1453.03 209.737C1461.49 206.157 1470.93 204.366 1481.35 204.366C1492.74 204.366 1502.1 205.75 1509.42 208.517C1516.75 211.284 1522.81 215.108 1527.61 219.991C1532.25 224.63 1535.63 230.123 1537.74 236.471C1539.86 242.737 1540.92 249.329 1540.92 256.246V264.181H1458.4C1458.4 280.864 1461.61 293.559 1468.04 302.267C1474.47 310.974 1484.68 315.328 1498.68 315.328C1506.33 315.328 1513.21 313.253 1519.31 309.103C1525.42 304.871 1530.62 299.54 1534.94 293.111L1544.21 299.825ZM1497.58 253.438C1497.58 248.556 1497.34 243.551 1496.85 238.424C1496.36 233.297 1495.51 229.106 1494.29 225.851C1492.9 222.026 1490.99 219.137 1488.55 217.184C1486.19 215.23 1483.18 214.254 1479.52 214.254C1473.25 214.254 1468.25 217.428 1464.5 223.775C1460.76 230.123 1458.72 240.174 1458.4 253.927L1497.58 253.438Z" fill="#211F1E"/>
<path d="M182.724 479H178.224L137.024 416.2V479H132.524V408.9H137.024L178.224 471.5V408.9H182.724V479ZM295.523 479.8C289.057 479.8 283.223 478.3 278.023 475.3C272.823 472.233 268.757 467.967 265.823 462.5C262.89 457.033 261.423 450.867 261.423 444C261.423 437.067 262.89 430.9 265.823 425.5C268.757 420.033 272.823 415.8 278.023 412.8C283.223 409.733 289.057 408.2 295.523 408.2C301.99 408.2 307.823 409.733 313.023 412.8C318.223 415.8 322.29 420.033 325.223 425.5C328.157 430.9 329.623 437.067 329.623 444C329.623 450.867 328.157 457.033 325.223 462.5C322.29 467.967 318.223 472.233 313.023 475.3C307.823 478.3 301.99 479.8 295.523 479.8ZM295.523 475.8C301.057 475.8 306.057 474.5 310.523 471.9C314.99 469.3 318.49 465.6 321.023 460.8C323.623 456 324.923 450.4 324.923 444C324.923 437.533 323.623 431.9 321.023 427.1C318.49 422.3 314.99 418.6 310.523 416C306.057 413.4 301.057 412.1 295.523 412.1C289.99 412.1 284.99 413.4 280.523 416C276.057 418.6 272.523 422.3 269.923 427.1C267.323 431.9 266.023 437.533 266.023 444C266.023 450.4 267.323 456 269.923 460.8C272.523 465.6 276.057 469.3 280.523 471.9C284.99 474.5 289.99 475.8 295.523 475.8ZM521.75 479.7C517.217 479.7 513.25 478.9 509.85 477.3C506.45 475.7 503.783 473.533 501.85 470.8C499.983 468.067 498.917 465.033 498.65 461.7H503.35C503.883 465.367 505.583 468.633 508.45 471.5C511.383 474.367 515.817 475.8 521.75 475.8C525.217 475.8 528.217 475.167 530.75 473.9C533.35 472.633 535.35 470.9 536.75 468.7C538.15 466.5 538.85 464.067 538.85 461.4C538.85 458 538.017 455.3 536.35 453.3C534.75 451.3 532.717 449.8 530.25 448.8C527.85 447.8 524.583 446.733 520.45 445.6C515.917 444.4 512.25 443.2 509.45 442C506.717 440.8 504.383 438.967 502.45 436.5C500.583 433.967 499.65 430.533 499.65 426.2C499.65 422.867 500.517 419.833 502.25 417.1C504.05 414.3 506.583 412.1 509.85 410.5C513.117 408.9 516.883 408.1 521.15 408.1C527.35 408.1 532.35 409.633 536.15 412.7C539.95 415.767 542.217 419.533 542.95 424H538.15C537.75 422.2 536.85 420.367 535.45 418.5C534.117 416.633 532.183 415.1 529.65 413.9C527.183 412.633 524.217 412 520.75 412C516.083 412 512.15 413.3 508.95 415.9C505.75 418.433 504.15 421.833 504.15 426.1C504.15 429.5 504.983 432.233 506.65 434.3C508.317 436.3 510.35 437.833 512.75 438.9C515.217 439.9 518.517 440.933 522.65 442C527.25 443.267 530.883 444.5 533.55 445.7C536.283 446.833 538.583 448.667 540.45 451.2C542.383 453.667 543.35 457.033 543.35 461.3C543.35 464.433 542.517 467.4 540.85 470.2C539.183 473 536.717 475.3 533.45 477.1C530.25 478.833 526.35 479.7 521.75 479.7ZM626.321 412.6V441.9H654.321V445.7H626.321V475.2H657.321V479H621.821V408.8H657.321V412.6H626.321ZM740.042 408.8V452.7C740.042 460.633 741.842 466.467 745.442 470.2C749.042 473.867 753.942 475.7 760.142 475.7C766.276 475.7 771.109 473.867 774.642 470.2C778.176 466.533 779.942 460.7 779.942 452.7V408.8H784.442V452.6C784.442 461.733 782.242 468.533 777.842 473C773.442 477.467 767.542 479.7 760.142 479.7C752.742 479.7 746.776 477.467 742.242 473C737.776 468.467 735.542 461.667 735.542 452.6V408.8H740.042ZM997.418 408.8V412.6H977.418V479H972.918V412.6H952.918V408.8H997.418ZM1077.63 412.6V441.9H1105.63V445.7H1077.63V475.2H1108.63V479H1073.13V408.8H1108.63V412.6H1077.63ZM1252.75 410.3V479H1248.25V419.7L1221.85 479H1218.25L1191.75 419.7V479H1187.25V410.3H1192.05L1220.05 473.1L1248.05 410.3H1252.75ZM1376.78 428.6C1376.78 434.8 1374.85 439.633 1370.98 443.1C1367.12 446.5 1361.38 448.2 1353.78 448.2H1338.78V479H1334.28V408.8H1353.78C1361.52 408.8 1367.28 410.6 1371.08 414.2C1374.88 417.733 1376.78 422.533 1376.78 428.6ZM1353.78 444.2C1366.12 444.2 1372.28 439 1372.28 428.6C1372.28 423.467 1370.82 419.567 1367.88 416.9C1364.95 414.167 1360.25 412.8 1353.78 412.8H1338.78V444.2H1353.78ZM1485.17 479.8C1478.71 479.8 1472.87 478.3 1467.67 475.3C1462.47 472.233 1458.41 467.967 1455.47 462.5C1452.54 457.033 1451.07 450.867 1451.07 444C1451.07 437.067 1452.54 430.9 1455.47 425.5C1458.41 420.033 1462.47 415.8 1467.67 412.8C1472.87 409.733 1478.71 408.2 1485.17 408.2C1491.64 408.2 1497.47 409.733 1502.67 412.8C1507.87 415.8 1511.94 420.033 1514.87 425.5C1517.81 430.9 1519.27 437.067 1519.27 444C1519.27 450.867 1517.81 457.033 1514.87 462.5C1511.94 467.967 1507.87 472.233 1502.67 475.3C1497.47 478.3 1491.64 479.8 1485.17 479.8ZM1485.17 475.8C1490.71 475.8 1495.71 474.5 1500.17 471.9C1504.64 469.3 1508.14 465.6 1510.67 460.8C1513.27 456 1514.57 450.4 1514.57 444C1514.57 437.533 1513.27 431.9 1510.67 427.1C1508.14 422.3 1504.64 418.6 1500.17 416C1495.71 413.4 1490.71 412.1 1485.17 412.1C1479.64 412.1 1474.64 413.4 1470.17 416C1465.71 418.6 1462.17 422.3 1459.57 427.1C1456.97 431.9 1455.67 437.533 1455.67 444C1455.67 450.4 1456.97 456 1459.57 460.8C1462.17 465.6 1465.71 469.3 1470.17 471.9C1474.64 474.5 1479.64 475.8 1485.17 475.8Z" fill="#211F1E"/>
</svg>
