<svg width="24" height="25" viewBox="0 0 24 25" fill="none" xmlns="http://www.w3.org/2000/svg">
<path d="M12 2.63232C6.61547 2.63232 2.25 6.99779 2.25 12.3823C2.25 17.7584 6.62437 22.1323 12 22.1323C17.3841 22.1323 21.75 17.7664 21.75 12.3823C21.75 7.00623 17.3761 2.63232 12 2.63232ZM17.0625 13.8823H11.4375C11.3878 13.8823 11.3401 13.8626 11.3049 13.8274C11.2698 13.7922 11.25 13.7446 11.25 13.6948V5.81982C11.25 5.7701 11.2698 5.7224 11.3049 5.68724C11.3401 5.65208 11.3878 5.63232 11.4375 5.63232H12.5625C12.6122 5.63232 12.6599 5.65208 12.6951 5.68724C12.7302 5.7224 12.75 5.7701 12.75 5.81982V12.3823H17.0625C17.1122 12.3823 17.1599 12.4021 17.1951 12.4372C17.2302 12.4724 17.25 12.5201 17.25 12.5698V13.6948C17.25 13.7446 17.2302 13.7922 17.1951 13.8274C17.1599 13.8626 17.1122 13.8823 17.0625 13.8823Z" fill="#211F1E"/>
</svg>
